<svg version="1.1" id="Layer_1" xmlns="http://www.w3.org/2000/svg" xmlns:xlink="http://www.w3.org/1999/xlink" x="0px" y="0px"
	 width="100%" viewBox="0 0 1440 685" enable-background="new 0 0 1440 685" xml:space="preserve">
<path fill="#ffffff" opacity="1.000000" stroke="none" 
	d="
M34.000000,686.000000 
	C23.010225,686.000000 12.020451,686.000000 1.000000,686.000000 
	C1.000000,544.641785 1.000000,403.283539 1.249522,261.130676 
	C13.008766,267.892181 24.057100,276.304443 36.132034,282.811707 
	C56.249405,293.653076 78.144218,300.222290 100.885544,301.674744 
	C117.109596,302.710938 133.744400,302.066589 149.810333,299.629883 
	C170.068878,296.557343 189.424377,289.505615 207.264603,278.964386 
	C224.484482,268.789673 240.106354,256.809357 253.246063,241.474030 
	C265.367126,227.327560 275.458618,212.102356 283.025909,195.098236 
	C291.076752,177.007477 296.485443,158.086136 297.738525,138.457230 
	C298.944214,119.571472 298.694855,100.542412 294.057037,81.855537 
	C287.458649,55.268860 276.546570,30.864334 259.105652,9.551807 
	C256.892242,6.847041 255.026703,3.857569 253.000000,0.999997 
	C579.358215,1.000000 905.716492,1.000000 1232.894165,1.227142 
	C1233.391235,2.219969 1233.234741,3.126091 1232.722412,3.730836 
	C1218.778442,20.190588 1215.546997,39.345848 1219.057007,59.936813 
	C1222.790894,81.841660 1235.744507,97.339836 1254.724976,107.855354 
	C1269.510254,116.046654 1285.763794,116.940521 1301.933105,113.809540 
	C1317.040527,110.884171 1329.729370,102.712898 1339.516724,90.883446 
	C1350.929077,77.089928 1356.024414,61.054176 1355.130615,42.934849 
	C1354.560181,31.369211 1351.522827,20.857784 1345.576904,11.038775 
	C1343.595337,7.766755 1341.852173,4.350400 1340.000000,1.000026 
	C1373.644897,1.000000 1407.289917,1.000000 1441.000000,1.000000 
	C1441.000000,187.024902 1441.000000,373.049805 1440.738892,559.869690 
	C1440.083130,560.359436 1439.520630,560.138794 1439.317749,559.736816 
	C1428.016479,537.327148 1411.224976,520.002808 1390.146851,506.666565 
	C1372.398315,495.437073 1352.862061,489.055573 1332.104126,487.216370 
	C1321.804443,486.303833 1311.282593,487.358521 1300.898804,488.070984 
	C1287.653564,488.979767 1275.158203,493.062897 1263.130249,498.515778 
	C1244.141968,507.124023 1228.034058,519.442200 1214.752441,535.619080 
	C1206.184448,546.054932 1199.238037,557.348389 1193.981689,569.734558 
	C1185.979736,588.590149 1183.142456,608.279846 1183.921509,628.681885 
	C1184.360107,640.166687 1186.002197,651.382080 1189.716553,662.208801 
	C1192.476562,670.253967 1195.881958,678.077698 1199.000000,686.000000 
	C857.308411,686.000000 515.616821,686.000000 173.470825,685.596924 
	C176.802826,673.559753 177.148682,661.673157 174.974899,649.770752 
	C171.471130,630.586304 161.697937,615.281433 145.707062,603.976685 
	C128.622635,591.898926 109.621140,588.465637 89.375084,592.078796 
	C70.358490,595.472534 55.087090,605.347290 44.035461,621.241394 
	C30.206303,641.130066 27.556492,662.896362 34.000000,686.000000 
M454.660980,228.083450 
	C456.158997,228.046509 457.724365,228.282669 459.145020,227.932144 
	C485.435120,221.445068 505.509735,206.617035 517.764099,182.366608 
	C526.006531,166.055435 527.974243,148.467468 525.022278,130.366287 
	C520.366455,101.817741 504.377808,81.355225 479.218475,68.257011 
	C462.997162,59.812023 445.281891,58.005577 427.168640,60.986568 
	C404.431915,64.728477 386.347839,76.008995 372.829254,94.601334 
	C358.841431,113.839111 354.453979,135.296432 357.956329,158.667343 
	C361.337860,181.231720 372.656647,199.216537 390.503601,212.673813 
	C409.156158,226.738586 430.776001,231.298630 454.660980,228.083450 
M1068.627930,520.926331 
	C1057.286133,517.701965 1045.599731,517.596985 1034.478760,520.460022 
	C1010.737793,526.572021 993.243042,540.802551 984.041260,564.022644 
	C976.217285,583.765808 976.580261,603.637268 985.478333,622.855042 
	C993.579529,640.351990 1007.090515,652.638794 1025.159424,659.603638 
	C1039.315674,665.060364 1054.145996,665.958557 1068.643555,662.512207 
	C1084.511475,658.740173 1098.048584,650.487183 1108.457397,637.246765 
	C1117.026367,626.346558 1122.319214,614.159485 1123.802490,600.707947 
	C1125.513550,585.193054 1123.113892,570.221558 1115.151978,556.183289 
	C1104.770264,537.878479 1089.740112,526.185242 1068.627930,520.926331 
M1097.482056,45.917953 
	C1078.182007,52.848072 1070.540039,70.620163 1074.673584,87.970818 
	C1079.661743,108.909218 1100.378906,121.041267 1122.400879,112.824211 
	C1140.991089,105.887611 1148.402954,88.954155 1144.228394,70.937378 
	C1139.569214,50.828522 1120.015625,39.258236 1097.482056,45.917953 
M368.575836,385.889526 
	C361.740417,387.240021 356.539795,391.133423 351.965759,396.207489 
	C344.579559,404.401123 342.823456,414.201508 344.101501,424.609650 
	C345.071930,432.512817 349.252625,438.836884 355.325500,444.142731 
	C363.488922,451.275116 372.988220,452.932739 383.256317,451.969177 
	C391.017181,451.240845 397.497803,447.281555 402.502167,441.794128 
	C410.053009,433.514343 412.568604,423.167938 410.893951,412.162842 
	C409.718903,404.440979 405.693604,398.146667 399.676941,392.884857 
	C390.713440,385.045837 380.354889,383.982697 368.575836,385.889526 
M55.566040,518.056885 
	C49.600830,511.395081 42.260601,508.379730 33.233990,508.942627 
	C22.301014,509.624390 14.585962,514.855408 10.710117,524.918579 
	C7.019810,534.500061 8.072866,543.936951 14.671295,552.088989 
	C20.600664,559.414551 28.709698,561.818604 37.931965,561.009277 
	C46.447319,560.262024 53.237381,556.462036 57.438587,549.032288 
	C63.260365,538.736633 62.464714,528.479553 55.566040,518.056885 
z"/>
<path fill="#ffeaea" opacity="1.000000" stroke="none" 
	d="
M252.531342,0.999997 
	C255.026703,3.857569 256.892242,6.847041 259.105652,9.551807 
	C276.546570,30.864334 287.458649,55.268860 294.057037,81.855537 
	C298.694855,100.542412 298.944214,119.571472 297.738525,138.457230 
	C296.485443,158.086136 291.076752,177.007477 283.025909,195.098236 
	C275.458618,212.102356 265.367126,227.327560 253.246063,241.474030 
	C240.106354,256.809357 224.484482,268.789673 207.264603,278.964386 
	C189.424377,289.505615 170.068878,296.557343 149.810333,299.629883 
	C133.744400,302.066589 117.109596,302.710938 100.885544,301.674744 
	C78.144218,300.222290 56.249405,293.653076 36.132034,282.811707 
	C24.057100,276.304443 13.008766,267.892181 1.249522,260.668030 
	C1.000000,174.407425 1.000000,87.814865 1.000000,1.000000 
	C84.687431,1.000000 168.375061,1.000000 252.531342,0.999997 
z"/>
<path fill="#ffeaea" opacity="1.000000" stroke="none" 
	d="
M1199.468628,686.000000 
	C1195.881958,678.077698 1192.476562,670.253967 1189.716553,662.208801 
	C1186.002197,651.382080 1184.360107,640.166687 1183.921509,628.681885 
	C1183.142456,608.279846 1185.979736,588.590149 1193.981689,569.734558 
	C1199.238037,557.348389 1206.184448,546.054932 1214.752441,535.619080 
	C1228.034058,519.442200 1244.141968,507.124023 1263.130249,498.515778 
	C1275.158203,493.062897 1287.653564,488.979767 1300.898804,488.070984 
	C1311.282593,487.358521 1321.804443,486.303833 1332.104126,487.216370 
	C1352.862061,489.055573 1372.398315,495.437073 1390.146851,506.666565 
	C1411.224976,520.002808 1428.016479,537.327148 1439.317749,559.736816 
	C1439.520630,560.138794 1440.083130,560.359436 1440.738892,560.332336 
	C1441.000000,601.950012 1441.000000,643.900085 1441.000000,686.000000 
	C1360.645752,686.000000 1280.291504,686.000000 1199.468628,686.000000 
z"/>
<path fill="#ffeaea" opacity="1.000000" stroke="none" 
	d="
M1339.531250,1.000026 
	C1341.852173,4.350400 1343.595337,7.766755 1345.576904,11.038775 
	C1351.522827,20.857784 1354.560181,31.369211 1355.130615,42.934849 
	C1356.024414,61.054176 1350.929077,77.089928 1339.516724,90.883446 
	C1329.729370,102.712898 1317.040527,110.884171 1301.933105,113.809540 
	C1285.763794,116.940521 1269.510254,116.046654 1254.724976,107.855354 
	C1235.744507,97.339836 1222.790894,81.841660 1219.057007,59.936813 
	C1215.546997,39.345848 1218.778442,20.190588 1232.722412,3.730836 
	C1233.234741,3.126091 1233.391235,2.219969 1233.356812,1.227142 
	C1268.354248,1.000000 1303.708496,1.000000 1339.531250,1.000026 
z"/>
<path fill="#ffeaea" opacity="1.000000" stroke="none" 
	d="
M34.468658,686.000000 
	C27.556492,662.896362 30.206303,641.130066 44.035461,621.241394 
	C55.087090,605.347290 70.358490,595.472534 89.375084,592.078796 
	C109.621140,588.465637 128.622635,591.898926 145.707062,603.976685 
	C161.697937,615.281433 171.471130,630.586304 174.974899,649.770752 
	C177.148682,661.673157 176.802826,673.559753 173.008209,685.596924 
	C126.979103,686.000000 80.958214,686.000000 34.468658,686.000000 
z"/>
<path fill="#ffeaea" opacity="1.000000" stroke="none" 
	d="
M454.295532,228.360535 
	C430.776001,231.298630 409.156158,226.738586 390.503601,212.673813 
	C372.656647,199.216537 361.337860,181.231720 357.956329,158.667343 
	C354.453979,135.296432 358.841431,113.839111 372.829254,94.601334 
	C386.347839,76.008995 404.431915,64.728477 427.168640,60.986568 
	C445.281891,58.005577 462.997162,59.812023 479.218475,68.257011 
	C504.377808,81.355225 520.366455,101.817741 525.022278,130.366287 
	C527.974243,148.467468 526.006531,166.055435 517.764099,182.366608 
	C505.509735,206.617035 485.435120,221.445068 459.145020,227.932144 
	C457.724365,228.282669 456.158997,228.046509 454.295532,228.360535 
z"/>
<path fill="#ffeaea" opacity="1.000000" stroke="none" 
	d="
M1069.052979,520.959229 
	C1089.740112,526.185242 1104.770264,537.878479 1115.151978,556.183289 
	C1123.113892,570.221558 1125.513550,585.193054 1123.802490,600.707947 
	C1122.319214,614.159485 1117.026367,626.346558 1108.457397,637.246765 
	C1098.048584,650.487183 1084.511475,658.740173 1068.643555,662.512207 
	C1054.145996,665.958557 1039.315674,665.060364 1025.159424,659.603638 
	C1007.090515,652.638794 993.579529,640.351990 985.478333,622.855042 
	C976.580261,603.637268 976.217285,583.765808 984.041260,564.022644 
	C993.243042,540.802551 1010.737793,526.572021 1034.478760,520.460022 
	C1045.599731,517.596985 1057.286133,517.701965 1069.052979,520.959229 
z"/>
<path fill="#ffeaea" opacity="1.000000" stroke="none" 
	d="
M1097.797852,45.650536 
	C1120.015625,39.258236 1139.569214,50.828522 1144.228394,70.937378 
	C1148.402954,88.954155 1140.991089,105.887611 1122.400879,112.824211 
	C1100.378906,121.041267 1079.661743,108.909218 1074.673584,87.970818 
	C1070.540039,70.620163 1078.182007,52.848072 1097.797852,45.650536 
z"/>
<path fill="#ffeaea" opacity="1.000000" stroke="none" 
	d="
M368.917175,385.618286 
	C380.354889,383.982697 390.713440,385.045837 399.676941,392.884857 
	C405.693604,398.146667 409.718903,404.440979 410.893951,412.162842 
	C412.568604,423.167938 410.053009,433.514343 402.502167,441.794128 
	C397.497803,447.281555 391.017181,451.240845 383.256317,451.969177 
	C372.988220,452.932739 363.488922,451.275116 355.325500,444.142731 
	C349.252625,438.836884 345.071930,432.512817 344.101501,424.609650 
	C342.823456,414.201508 344.579559,404.401123 351.965759,396.207489 
	C356.539795,391.133423 361.740417,387.240021 368.917175,385.618286 
z"/>
<path fill="#ffeaea" opacity="1.000000" stroke="none" 
	d="
M55.808502,518.332947 
	C62.464714,528.479553 63.260365,538.736633 57.438587,549.032288 
	C53.237381,556.462036 46.447319,560.262024 37.931965,561.009277 
	C28.709698,561.818604 20.600664,559.414551 14.671295,552.088989 
	C8.072866,543.936951 7.019810,534.500061 10.710117,524.918579 
	C14.585962,514.855408 22.301014,509.624390 33.233990,508.942627 
	C42.260601,508.379730 49.600830,511.395081 55.808502,518.332947 
z"/>
</svg>